<?xml version="1.0" encoding="UTF-8" standalone="no"?>
<svg width="84px" height="84px" viewBox="0 0 84 84" version="1.1" xmlns="http://www.w3.org/2000/svg" xmlns:xlink="http://www.w3.org/1999/xlink" xmlns:sketch="http://www.bohemiancoding.com/sketch/ns">
    <!-- Generator: Sketch 3.3.2 (12043) - http://www.bohemiancoding.com/sketch -->
    <title>Business intelligence</title>
    <desc>Created with Sketch.</desc>
    <defs>
        <rect id="path-1" x="0" y="0" width="82" height="82" rx="40"></rect>
    </defs>
    <g id="Main-page-new-style-icons" stroke="none" stroke-width="1" fill="none" fill-rule="evenodd" sketch:type="MSPage">
        <g id="icons" sketch:type="MSArtboardGroup" transform="translate(-594.000000, -452.000000)">
            <g id="Business-intelligence" sketch:type="MSLayerGroup" transform="translate(595.000000, 453.000000)">
                <g id="Rectangle-290">
                    <use stroke="#FFFFFF" stroke-width="4" fill="#EEEEEE" fill-rule="evenodd" sketch:type="MSShapeGroup" xlink:href="#path-1"></use>
                    <use stroke="#F2EDED" stroke-width="1" fill="none" xlink:href="#path-1"></use>
                </g>
                <g id="website22" transform="translate(23.000000, 25.000000)" fill="#005EB8" sketch:type="MSShapeGroup">
                    <g id="Group">
                        <path d="M33.00156,0.0883636364 L2.99844,0.0883636364 C1.34514,0.0883636364 0,1.447 0,3.11718182 L0,22.8691818 C0,24.5392727 1.34514,25.898 2.99844,25.898 L12.66561,25.898 L10.83069,29.9848182 C10.64124,30.4069091 10.67688,30.8972727 10.92546,31.2867273 C11.17395,31.6762727 11.60136,31.9115455 12.06018,31.9115455 L23.93982,31.9115455 L23.94162,31.9115455 C24.68718,31.9115455 25.29162,31.3010909 25.29162,30.5479091 C25.29162,30.3212727 25.23699,30.1071818 25.13988,29.9191818 L23.3343,25.898 L33.00147,25.898 C34.65486,25.898 35.99991,24.5392727 35.99991,22.8691818 L35.99991,3.11718182 C36,1.447 34.65486,0.0883636364 33.00156,0.0883636364 L33.00156,0.0883636364 Z M33.3,22.8692727 C33.3,23.0355455 33.16608,23.1707273 33.00156,23.1707273 L21.23982,23.1707273 L14.76018,23.1707273 L2.99844,23.1707273 C2.83383,23.1707273 2.7,23.0355455 2.7,22.8692727 L2.7,3.11718182 C2.7,2.95090909 2.83392,2.81563636 2.99844,2.81563636 L33.00147,2.81563636 C33.16608,2.81563636 33.29991,2.95090909 33.29991,3.11718182 L33.3,22.8692727 L33.3,22.8692727 Z" id="Shape"></path>
                        <path d="M6.55569,12.6142727 C7.40457,12.7108182 8.20737,12.3995455 8.77239,11.8357273 L16.14501,14.5119091 C16.22124,15.8213636 17.22204,16.9280909 18.55539,17.0797273 C20.04588,17.2494545 21.39507,16.1626364 21.56301,14.6572727 C21.57489,14.5504545 21.57993,14.4445455 21.57957,14.3394545 L27.80145,9.75454545 C28.11087,9.93190909 28.45971,10.0505455 28.83501,10.0932727 C30.32568,10.2629091 31.67496,9.17609091 31.84263,7.67063636 C32.01057,6.16509091 30.93462,4.80227273 29.44449,4.63263636 C27.95382,4.46290909 26.60481,5.54972727 26.43696,7.05518182 C26.38305,7.53718182 26.4573,8.00409091 26.63145,8.42245455 L20.95767,12.6034545 C20.52414,12.0718182 19.89423,11.7022727 19.16469,11.6191818 C18.1314,11.5017273 17.16642,11.9882727 16.61553,12.7990909 L9.55737,10.2369091 C9.55926,10.2217273 9.56187,10.2068182 9.5634,10.1914545 C9.73143,8.68590909 8.65548,7.32309091 7.16517,7.15363636 C5.67459,6.98390909 4.3254,8.07072727 4.15746,9.57618182 C3.98934,11.0815455 5.06529,12.4445455 6.55569,12.6142727 L6.55569,12.6142727 Z M28.1808,7.25363636 C28.2402,6.71927273 28.71891,6.33390909 29.24766,6.39390909 C29.7765,6.45418182 30.15846,6.93754545 30.09879,7.47190909 C30.03912,8.006 29.56059,8.39163636 29.03175,8.33145455 C28.50291,8.27145455 28.12113,7.78763636 28.1808,7.25363636 L28.1808,7.25363636 Z M17.90073,14.2402727 C17.96031,13.7062727 18.43911,13.3205455 18.96777,13.3808182 C19.4967,13.441 19.87848,13.9245455 19.81899,14.4586364 C19.75923,14.9929091 19.28061,15.3784545 18.75168,15.3182727 C18.22311,15.258 17.84124,14.7746364 17.90073,14.2402727 L17.90073,14.2402727 Z M5.90112,9.77463636 C5.96079,9.24045455 6.43959,8.85481818 6.96834,8.915 C7.49727,8.97527273 7.87896,9.45872727 7.81938,9.993 C7.7598,10.5271818 7.281,10.9127273 6.75225,10.8524545 C6.22323,10.7923636 5.84154,10.3087273 5.90112,9.77463636 L5.90112,9.77463636 Z" id="Shape"></path>
                        <path d="M29.14173,11.5879091 C29.00727,11.5879091 28.87101,11.58 28.73673,11.5649091 C28.44972,11.5321818 28.1709,11.4658182 27.90369,11.3669091 L22.42845,15.4016364 C22.19886,17.2147273 20.67525,18.5744545 18.86184,18.5744545 C18.72738,18.5744545 18.59112,18.5668182 18.45702,18.5514545 C16.91586,18.3760909 15.68961,17.2403636 15.35391,15.7575455 L8.94861,13.4324545 C8.34201,13.8717273 7.61859,14.1089091 6.86187,14.1089091 L6.86169,14.1089091 C6.72732,14.1089091 6.59124,14.1010909 6.45723,14.086 C5.52222,13.9793636 4.71114,13.5175455 4.13982,12.8493636 L4.13982,21.7944545 L31.85982,21.7944545 L31.85982,10.3331818 C31.19778,11.1057273 30.22119,11.5879091 29.14173,11.5879091 L29.14173,11.5879091 Z" id="Shape"></path>
                    </g>
                </g>
            </g>
        </g>
    </g>
</svg>