<?xml version="1.0" encoding="utf-8"?>
<!-- Generator: Adobe Illustrator 16.2.0, SVG Export Plug-In . SVG Version: 6.00 Build 0)  -->
<!DOCTYPE svg PUBLIC "-//W3C//DTD SVG 1.1//EN" "http://www.w3.org/Graphics/SVG/1.1/DTD/svg11.dtd">
<svg version="1.1" id="Layer_1" xmlns:sketch="http://www.bohemiancoding.com/sketch/ns"
	 xmlns="http://www.w3.org/2000/svg" xmlns:xlink="http://www.w3.org/1999/xlink" x="0px" y="0px" width="84px" height="84px"
	 viewBox="0 0 84 84" enable-background="new 0 0 84 84" xml:space="preserve">
<title>Enterprise mobile apps</title>
<desc>Created with Sketch.</desc>
<g id="Main-page-new-style-icons" sketch:type="MSPage">
	<g id="icons" transform="translate(-353.000000, -452.000000)" sketch:type="MSArtboardGroup">
		<g id="Enterprise-mobile-apps-" transform="translate(354.000000, 453.000000)" sketch:type="MSLayerGroup">
			<g id="Rectangle-290">
				<g sketch:type="MSShapeGroup">
					<path id="path-1" fill="#EEEEEE" stroke="#FFFFFF" stroke-width="4" d="M40,0h2c22.092,0,40,17.909,40,40v2
						c0,22.092-17.908,40-40,40h-2C17.909,82,0,64.092,0,42v-2C0,17.909,17.909,0,40,0z"/>
				</g>
				<g>
					<path id="path-1_1_" fill="none" stroke="#F2EDED" d="M40,0h2c22.092,0,40,17.909,40,40v2c0,22.092-17.908,40-40,40h-2
						C17.909,82,0,64.092,0,42v-2C0,17.909,17.909,0,40,0z"/>
				</g>
			</g>
		</g>
	</g>
</g>
<g>
	<path fill="#005EB8" d="M51.065,51.195c0,0,0,0,0-1.176c0-4.809-3.93-8.736-8.741-8.736l0,0c-4.811,0-8.739,3.928-8.739,8.736
		v1.176C33.585,51.195,41.265,56.726,51.065,51.195z"/>
	<path fill="#005EB8" d="M47.096,35.643c0,2.568-2.085,4.731-4.732,4.731c-2.646,0-4.81-2.163-4.81-4.731
		c0-2.644,2.165-4.806,4.81-4.806C45.011,30.836,47.096,32.999,47.096,35.643L47.096,35.643z"/>
	<g>
		<g>
			<g>
				<path fill="#005EB8" d="M41.656,62.391c-10.867-0.355-19.38-9.157-19.38-20.039c0-1.366,0.14-2.734,0.414-4.067l1.887,0.388
					c-0.249,1.206-0.375,2.444-0.375,3.679c0,9.834,7.695,17.792,17.516,18.114L41.656,62.391z"/>
			</g>
			<g>
				<polygon fill="#005EB8" points="27.179,40.917 25.629,33.094 19.629,38.347 				"/>
			</g>
		</g>
	</g>
	<g>
		<g>
			<g>
				<path fill="#005EB8" d="M49.357,61.134l-0.676-1.804c7.036-2.638,11.763-9.461,11.763-16.979c0-2.941-0.721-5.86-2.083-8.443
					l1.704-0.899c1.508,2.86,2.306,6.09,2.306,9.342C62.371,50.667,57.142,58.216,49.357,61.134z"/>
			</g>
			<g>
				<polygon fill="#005EB8" points="49.201,55.937 43.399,61.409 51.038,63.697 				"/>
			</g>
		</g>
	</g>
	<g>
		<g>
			<g>
				<path fill="#005EB8" d="M27.168,32.416l-1.611-1.057c3.724-5.671,9.992-9.057,16.768-9.057c4.922,0,9.655,1.802,13.326,5.073
					l-1.281,1.438c-3.318-2.957-7.596-4.585-12.045-4.585C36.201,24.229,30.534,27.29,27.168,32.416z"/>
			</g>
			<g>
				<polygon fill="#005EB8" points="51.126,29.95 58.678,32.512 57.12,24.691 				"/>
			</g>
		</g>
	</g>
</g>
</svg>
