<?xml version="1.0" encoding="utf-8"?>
<!-- Generator: Adobe Illustrator 16.2.0, SVG Export Plug-In . SVG Version: 6.00 Build 0)  -->
<!DOCTYPE svg PUBLIC "-//W3C//DTD SVG 1.1//EN" "http://www.w3.org/Graphics/SVG/1.1/DTD/svg11.dtd">
<svg version="1.1" id="Layer_1" xmlns:sketch="http://www.bohemiancoding.com/sketch/ns"
	 xmlns="http://www.w3.org/2000/svg" xmlns:xlink="http://www.w3.org/1999/xlink" x="0px" y="0px" width="100px" height="100px"
	 viewBox="0 0 100 100" enable-background="new 0 0 100 100" xml:space="preserve">
<title>Enterprise mobile apps hover</title>
<desc>Created with Sketch.</desc>
<g id="Main-page-new-style-icons" sketch:type="MSPage">
	<g id="icons" transform="translate(-414.000000, -102.000000)" sketch:type="MSArtboardGroup">
		<g id="Enterprise-mobile-apps-hover-" transform="translate(415.000000, 103.000000)" sketch:type="MSLayerGroup">
			<g id="Rectangle-290">
				<g sketch:type="MSShapeGroup">
					<path id="path-1" fill="#005EB8" stroke="#FFFFFF" stroke-width="4" d="M49,0L49,0c27.063,0,49,21.938,49,49l0,0
						c0,27.063-21.938,49-49,49l0,0C21.938,98,0,76.063,0,49l0,0C0,21.938,21.938,0,49,0z"/>
				</g>
				<g>
					<path id="path-1_1_" fill="none" stroke="#DDDDDD" d="M49,0L49,0c27.063,0,49,21.938,49,49l0,0c0,27.063-21.938,49-49,49l0,0
						C21.938,98,0,76.063,0,49l0,0C0,21.938,21.938,0,49,0z"/>
				</g>
			</g>
		</g>
	</g>
</g>
<g>
	<path fill="#FFFFFF" d="M58.999,59.342c0,0,0,0,0-1.168c0-4.776-3.903-8.68-8.683-8.68l0,0c-4.779,0-8.683,3.903-8.683,8.68v1.168
		C41.633,59.342,49.263,64.836,58.999,59.342z"/>
	<path fill="#FFFFFF" d="M55.056,43.769c0,2.551-2.071,4.7-4.702,4.7c-2.628,0-4.778-2.148-4.778-4.7
		c0-2.626,2.15-4.774,4.778-4.774C52.984,38.994,55.056,41.142,55.056,43.769L55.056,43.769z"/>
	<g>
		<g>
			<g>
				<path fill="#FFFFFF" d="M49.652,70.463c-10.795-0.353-19.253-9.097-19.253-19.906c0-1.357,0.139-2.716,0.412-4.041l1.875,0.385
					c-0.247,1.198-0.372,2.428-0.372,3.655c0,9.771,7.644,17.675,17.401,17.995L49.652,70.463z"/>
			</g>
			<g>
				<polygon fill="#FFFFFF" points="35.27,49.13 33.729,41.36 27.769,46.579 				"/>
			</g>
		</g>
	</g>
	<g>
		<g>
			<g>
				<path fill="#FFFFFF" d="M57.303,69.215l-0.671-1.79c6.989-2.622,11.686-9.4,11.686-16.868c0-2.923-0.717-5.822-2.07-8.389
					l1.692-0.894c1.5,2.842,2.291,6.05,2.291,9.282C70.23,58.816,65.035,66.316,57.303,69.215z"/>
			</g>
			<g>
				<polygon fill="#FFFFFF" points="57.147,64.052 51.385,69.489 58.973,71.761 				"/>
			</g>
		</g>
	</g>
	<g>
		<g>
			<g>
				<path fill="#FFFFFF" d="M35.258,40.686l-1.6-1.05c3.699-5.633,9.927-8.998,16.659-8.998c4.889,0,9.591,1.79,13.237,5.04
					l-1.272,1.429c-3.298-2.937-7.545-4.554-11.965-4.554C44.232,32.553,38.602,35.593,35.258,40.686z"/>
			</g>
			<g>
				<polygon fill="#FFFFFF" points="59.059,38.236 66.562,40.781 65.015,33.011 				"/>
			</g>
		</g>
	</g>
</g>
</svg>
