<?xml version="1.0" encoding="UTF-8" standalone="no"?>
<svg width="84px" height="84px" viewBox="0 0 84 84" version="1.1" xmlns="http://www.w3.org/2000/svg" xmlns:xlink="http://www.w3.org/1999/xlink" xmlns:sketch="http://www.bohemiancoding.com/sketch/ns">
    <!-- Generator: Sketch 3.3.2 (12043) - http://www.bohemiancoding.com/sketch -->
    <title>Custom software development</title>
    <desc>Created with Sketch.</desc>
    <defs>
        <rect id="path-1" x="0" y="0" width="82" height="82" rx="40"></rect>
    </defs>
    <g id="Main-page-new-style-icons" stroke="none" stroke-width="1" fill="none" fill-rule="evenodd" sketch:type="MSPage">
        <g id="icons" sketch:type="MSArtboardGroup" transform="translate(-107.000000, -452.000000)">
            <g id="Custom-software-development" sketch:type="MSLayerGroup" transform="translate(108.000000, 453.000000)">
                <g id="Rectangle-290">
                    <use stroke="#FFFFFF" stroke-width="4" fill="#EEEEEE" fill-rule="evenodd" sketch:type="MSShapeGroup" xlink:href="#path-1"></use>
                    <use stroke="#F2EDED" stroke-width="1" fill="none" xlink:href="#path-1"></use>
                </g>
                <g id="ic_settings_white_24px-+-ic_settings_white_24px-copy" transform="translate(25.000000, 22.000000)" fill="#005EB8" sketch:type="MSShapeGroup">
                    <path d="M19.4594872,12.9920508 C19.5046154,12.6312127 19.5384615,12.2703746 19.5384615,11.8869841 C19.5384615,11.5035937 19.5046154,11.1427556 19.4594872,10.7819175 L21.84,8.92134603 C22.054359,8.75220317 22.1107692,8.44774603 21.9753846,8.19966984 L19.7189744,4.29810794 C19.5835897,4.05003175 19.2789744,3.95982222 19.0307692,4.05003175 L16.2215385,5.17765079 C15.6348718,4.72660317 15.0030769,4.35448889 14.3148718,4.07258413 L13.8861538,1.08439365 C13.8523077,0.813765079 13.6153846,0.610793651 13.3333333,0.610793651 L8.82051282,0.610793651 C8.53846154,0.610793651 8.30153846,0.813765079 8.26769231,1.08439365 L7.83897436,4.07258413 C7.15076923,4.35448889 6.51897436,4.73787937 5.93230769,5.17765079 L3.12307692,4.05003175 C2.86358974,3.94854603 2.57025641,4.05003175 2.43487179,4.29810794 L0.178461538,8.19966984 C0.0317948718,8.44774603 0.0994871795,8.75220317 0.313846154,8.92134603 L2.69435897,10.7819175 C2.64923077,11.1427556 2.61538462,11.5148698 2.61538462,11.8869841 C2.61538462,12.2590984 2.64923077,12.6312127 2.69435897,12.9920508 L0.313846154,14.8526222 C0.0994871795,15.0217651 0.0430769231,15.3262222 0.178461538,15.5742984 L2.43487179,19.4758603 C2.57025641,19.7239365 2.87487179,19.814146 3.12307692,19.7239365 L5.93230769,18.5963175 C6.51897436,19.0473651 7.15076923,19.4194794 7.83897436,19.7013841 L8.26769231,22.6895746 C8.30153846,22.9602032 8.53846154,23.1631746 8.82051282,23.1631746 L13.3333333,23.1631746 C13.6153846,23.1631746 13.8523077,22.9602032 13.8861538,22.6895746 L14.3148718,19.7013841 C15.0030769,19.4194794 15.6348718,19.0360889 16.2215385,18.5963175 L19.0307692,19.7239365 C19.2902564,19.8254222 19.5835897,19.7239365 19.7189744,19.4758603 L21.9753846,15.5742984 C22.1107692,15.3262222 22.054359,15.0217651 21.84,14.8526222 L19.4594872,12.9920508 L19.4594872,12.9920508 Z M11.0769231,15.8336508 C8.89948718,15.8336508 7.12820513,14.0632889 7.12820513,11.8869841 C7.12820513,9.71067937 8.89948718,7.94031746 11.0769231,7.94031746 C13.254359,7.94031746 15.025641,9.71067937 15.025641,11.8869841 C15.025641,14.0632889 13.254359,15.8336508 11.0769231,15.8336508 L11.0769231,15.8336508 Z" id="Shape"></path>
                    <path d="M29.9889316,29.0202159 C30.0208974,28.7646222 30.0448718,28.5090286 30.0448718,28.2374603 C30.0448718,27.9658921 30.0208974,27.7102984 29.9889316,27.4547048 L31.6751282,26.1368 C31.8269658,26.0169905 31.8669231,25.8013333 31.7710256,25.6256127 L30.172735,22.8620063 C30.0768376,22.6862857 29.8610684,22.6223873 29.6852564,22.6862857 L27.6953846,23.4850159 C27.2798291,23.1655238 26.8323077,22.9019429 26.3448291,22.7022603 L26.0411538,20.5856254 C26.0171795,20.3939302 25.849359,20.2501587 25.6495726,20.2501587 L22.4529915,20.2501587 C22.2532051,20.2501587 22.0853846,20.3939302 22.0614103,20.5856254 L21.757735,22.7022603 C21.2702564,22.9019429 20.822735,23.1735111 20.4071795,23.4850159 L18.4173077,22.6862857 C18.2335043,22.6144 18.0257265,22.6862857 17.9298291,22.8620063 L16.3315385,25.6256127 C16.2276496,25.8013333 16.2755983,26.0169905 16.4274359,26.1368 L18.1136325,27.4547048 C18.0816667,27.7102984 18.0576923,27.9738794 18.0576923,28.2374603 C18.0576923,28.5010413 18.0816667,28.7646222 18.1136325,29.0202159 L16.4274359,30.3381206 C16.2755983,30.4579302 16.235641,30.6735873 16.3315385,30.8493079 L17.9298291,33.6129143 C18.0257265,33.7886349 18.2414957,33.8525333 18.4173077,33.7886349 L20.4071795,32.9899048 C20.822735,33.3093968 21.2702564,33.5729778 21.757735,33.7726603 L22.0614103,35.8892952 C22.0853846,36.0809905 22.2532051,36.2247619 22.4529915,36.2247619 L25.6495726,36.2247619 C25.849359,36.2247619 26.0171795,36.0809905 26.0411538,35.8892952 L26.3448291,33.7726603 C26.8323077,33.5729778 27.2798291,33.3014095 27.6953846,32.9899048 L29.6852564,33.7886349 C29.8690598,33.8605206 30.0768376,33.7886349 30.172735,33.6129143 L31.7710256,30.8493079 C31.8669231,30.6735873 31.8269658,30.4579302 31.6751282,30.3381206 L29.9889316,29.0202159 L29.9889316,29.0202159 Z M24.0512821,31.0330159 C22.5089316,31.0330159 21.2542735,29.7790095 21.2542735,28.2374603 C21.2542735,26.6959111 22.5089316,25.4419048 24.0512821,25.4419048 C25.5936325,25.4419048 26.8482906,26.6959111 26.8482906,28.2374603 C26.8482906,29.7790095 25.5936325,31.0330159 24.0512821,31.0330159 L24.0512821,31.0330159 Z" id="Shape"></path>
                </g>
            </g>
        </g>
    </g>
</svg>