<?xml version="1.0" encoding="UTF-8" standalone="no"?>
<svg width="84px" height="84px" viewBox="0 0 84 84" version="1.1" xmlns="http://www.w3.org/2000/svg" xmlns:xlink="http://www.w3.org/1999/xlink" xmlns:sketch="http://www.bohemiancoding.com/sketch/ns">
    <!-- Generator: Sketch 3.3.2 (12043) - http://www.bohemiancoding.com/sketch -->
    <title>Enterprise mobile apps
</title>
    <desc>Created with Sketch.</desc>
    <defs>
        <rect id="path-1" x="0" y="0" width="82" height="82" rx="40"></rect>
    </defs>
    <g id="Main-page-new-style-icons" stroke="none" stroke-width="1" fill="none" fill-rule="evenodd" sketch:type="MSPage">
        <g id="icons" sketch:type="MSArtboardGroup" transform="translate(-353.000000, -452.000000)">
            <g id="Enterprise-mobile-apps-" sketch:type="MSLayerGroup" transform="translate(354.000000, 453.000000)">
                <g id="Rectangle-290">
                    <use stroke="#FFFFFF" stroke-width="4" fill="#EEEEEE" fill-rule="evenodd" sketch:type="MSShapeGroup" xlink:href="#path-1"></use>
                    <use stroke="#F2EDED" stroke-width="1" fill="none" xlink:href="#path-1"></use>
                </g>
                <g id="ipad9" transform="translate(24.000000, 24.000000)" fill="#005EB8" sketch:type="MSShapeGroup">
                    <g id="Group">
                        <path d="M17.9128992,32.8072253 L17.9128992,29.2378526 L2.99597479,29.2378526 L2.99597479,4.65778526 C2.99597479,4.00732632 3.5260084,3.47626947 4.17519328,3.47626947 L21.5954034,3.47626947 C22.2445882,3.47626947 22.775916,4.00723368 22.775916,4.65778526 L22.775916,10.1428716 L25.7705042,10.1428716 L25.7705042,4.65778526 C25.7705042,2.34922105 23.8975462,0.473894737 21.5953109,0.473894737 L4.17519328,0.473894737 C1.87147899,0.473894737 0,2.34922105 0,4.65778526 L0,30.74608 C0,33.0547368 1.87147899,34.9301558 4.17519328,34.9301558 L18.5318571,34.9301558 C18.2172941,34.4248505 17.9128992,33.7546611 17.9128992,32.8072253 L17.9128992,32.8072253 Z M12.8874706,33.8218189 C12.3762017,33.8218189 11.9366639,33.5786611 11.6292185,33.2173979 C11.3823193,32.9266274 11.2142689,32.5611032 11.2142689,32.1450947 C11.2142689,31.2210947 11.9640252,30.46976 12.887563,30.46976 C13.8082353,30.46976 14.5579916,31.2210947 14.5579916,32.1450947 C14.5579916,32.5611032 14.3913277,32.92672 14.1442437,33.2173979 C13.8354118,33.5786611 13.3958739,33.8218189 12.8874706,33.8218189 L12.8874706,33.8218189 Z" id="Shape"></path>
                        <path d="M31.7482185,12.0182905 L21.9257731,12.0182905 C20.7466471,12.0182905 19.7856723,12.9797137 19.7856723,14.1628042 L19.7856723,32.8071326 C19.7856723,33.9887411 20.7466471,34.9502568 21.9257731,34.9502568 L31.7482185,34.9502568 C32.927437,34.9502568 33.8882269,33.9887411 33.8882269,32.8071326 L33.8882269,14.1628042 C33.8882269,12.9797137 32.927437,12.0182905 31.7482185,12.0182905 L31.7482185,12.0182905 Z M22.0335546,14.27072 L31.6405294,14.27072 L31.6405294,30.7819284 L22.0335546,30.7819284 L22.0335546,14.27072 L22.0335546,14.27072 Z M25.7662521,32.7509979 C25.7662521,32.1594526 26.244521,31.6800842 26.8348235,31.6800842 C27.4279916,31.6800842 27.9077395,32.1594526 27.9077395,32.7509979 C27.9077395,33.3439326 27.4279916,33.8246905 26.8348235,33.8246905 C26.244521,33.8246905 25.7662521,33.3440253 25.7662521,32.7509979 L25.7662521,32.7509979 Z" id="Shape"></path>
                    </g>
                </g>
            </g>
        </g>
    </g>
</svg>