<?xml version="1.0" encoding="UTF-8" standalone="no"?>
<svg width="84px" height="84px" viewBox="0 0 84 84" version="1.1" xmlns="http://www.w3.org/2000/svg" xmlns:xlink="http://www.w3.org/1999/xlink" xmlns:sketch="http://www.bohemiancoding.com/sketch/ns">
    <!-- Generator: Sketch 3.3.2 (12043) - http://www.bohemiancoding.com/sketch -->
    <title>SharePoint</title>
    <desc>Created with Sketch.</desc>
    <defs>
        <rect id="path-1" x="0" y="0" width="82" height="82" rx="40"></rect>
    </defs>
    <g id="Main-page-new-style-icons" stroke="none" stroke-width="1" fill="none" fill-rule="evenodd" sketch:type="MSPage">
        <g id="icons" sketch:type="MSArtboardGroup" transform="translate(-230.000000, -452.000000)">
            <g id="SharePoint" sketch:type="MSLayerGroup" transform="translate(231.000000, 453.000000)">
                <g id="Rectangle-290">
                    <use stroke="#FFFFFF" stroke-width="4" fill="#EEEEEE" fill-rule="evenodd" sketch:type="MSShapeGroup" xlink:href="#path-1"></use>
                    <use stroke="#F2EDED" stroke-width="1" fill="none" xlink:href="#path-1"></use>
                </g>
                <g id="Imported-Layers-Copy-3" transform="translate(22.000000, 24.000000)" fill="#005EB8" sketch:type="MSShapeGroup">
                    <path d="M34.0277333,13.883908 C33.782,13.883908 33.5426,13.9091954 33.3120667,13.9572414 C32.4216,11.6788506 30.6837333,9.83034483 28.4822667,8.78977011 C28.5,8.64563218 28.5126667,8.49896552 28.5126667,8.34977011 C28.5126667,6.42034483 26.9445333,4.85632184 25.0116,4.85632184 C24.1920667,4.85632184 23.4396667,5.13954023 22.8430667,5.60988506 L22.8430667,11.0909195 C23.4396667,11.5612644 24.1920667,11.8444828 25.0116,11.8444828 C26.2060667,11.8444828 27.2586667,11.2464368 27.8907333,10.3348276 C29.6957333,11.2236782 31.1080667,12.7737931 31.8148667,14.6703448 C31.0295333,15.3113793 30.5266667,16.2862069 30.5266667,17.3786207 C30.5266667,18.4824138 31.0409333,19.466092 31.8427333,20.1071264 C31.1448,22.0390805 29.7185333,23.6182759 27.8907333,24.5185057 C27.2586667,23.6068966 26.2048,23.0088506 25.0116,23.0088506 C24.1920667,23.0088506 23.4396667,23.2933333 22.8430667,23.7624138 L22.8430667,29.2447126 C23.4396667,29.7150575 24.1920667,29.9982759 25.0116,29.9982759 C26.9445333,29.9982759 28.5114,28.4329885 28.5114,26.5035632 C28.5114,26.3543678 28.5,26.2089655 28.4822667,26.0648276 C30.7128667,25.0103448 32.4659333,23.1251724 33.345,20.8063218 C33.5654,20.8493103 33.7934,20.8733333 34.0277333,20.8733333 C35.9606667,20.8733333 37.5288,19.308046 37.5288,17.3786207 C37.5288,15.447931 35.9606667,13.883908 34.0277333,13.883908" id="Fill-1"></path>
                    <path d="M0.639666667,3.88402299 L0.5966,31.0654023 L20.9228,34.7548276 L20.9228,0.195862069 L0.639666667,3.88402299 L0.639666667,3.88402299 Z M12.0928667,24.2668966 C10.4360667,25.4667816 8.265,24.9597701 6.51953333,24.2428736 C6.49673333,23.2301149 6.47266667,22.216092 6.43846667,21.1970115 C7.55946667,22.023908 9.21626667,23.2414943 10.5526,22.1111494 C11.5849333,20.3814943 9.55446667,19.2802299 8.38153333,18.441954 C5.86086667,16.9209195 5.7684,12.7624138 8.2118,11.1377011 C9.64186667,10.2349425 11.3873333,10.5206897 12.9630667,10.741954 C12.9858667,11.6965517 13.0099333,12.6587356 13.0327333,13.6133333 C11.7192,13.1998851 10.0446667,12.3666667 8.96546667,13.7005747 C8.2118,15.6641379 10.5931333,16.4037931 11.7432667,17.427931 C13.9890667,18.8794253 14.1816,22.6067816 12.0928667,24.2668966 L12.0928667,24.2668966 Z" id="Fill-2"></path>
                </g>
            </g>
        </g>
    </g>
</svg>