<?xml version="1.0" encoding="UTF-8" standalone="no"?>
<svg width="84px" height="84px" viewBox="0 0 84 84" version="1.1" xmlns="http://www.w3.org/2000/svg" xmlns:xlink="http://www.w3.org/1999/xlink" xmlns:sketch="http://www.bohemiancoding.com/sketch/ns">
    <!-- Generator: Sketch 3.3.2 (12043) - http://www.bohemiancoding.com/sketch -->
    <title>Websites and portals	
Websites and portals	
</title>
    <desc>Created with Sketch.</desc>
    <defs>
        <rect id="path-1" x="0" y="0" width="82" height="82" rx="40"></rect>
    </defs>
    <g id="Main-page-new-style-icons" stroke="none" stroke-width="1" fill="none" fill-rule="evenodd" sketch:type="MSPage">
        <g id="icons" sketch:type="MSArtboardGroup" transform="translate(-704.000000, -452.000000)">
            <g id="Websites-and-portals--Websites-and-portals--" sketch:type="MSLayerGroup" transform="translate(705.000000, 453.000000)">
                <g id="Rectangle-290">
                    <use stroke="#FFFFFF" stroke-width="4" fill="#EEEEEE" fill-rule="evenodd" sketch:type="MSShapeGroup" xlink:href="#path-1"></use>
                    <use stroke="#F2EDED" stroke-width="1" fill="none" xlink:href="#path-1"></use>
                </g>
                <g id="website21" transform="translate(22.000000, 24.000000)" fill="#005EB8" sketch:type="MSShapeGroup">
                    <path d="M25.5952619,30.3543573 C25.3983857,30.2352314 25.2268429,30.075527 25.0904952,29.8819923 C25.0275238,29.7927378 24.9743238,29.6983548 24.9302619,29.6008226 L2.55884762,29.6008226 L2.55884762,7.67264781 L32.9248286,7.67264781 L32.9248286,21.9909769 C33.5730905,22.0491902 34.1170333,22.4726093 34.3453952,23.0524036 C34.5476095,22.9421851 34.7729857,22.8740746 35.0098524,22.8532905 C35.1700857,22.8394344 35.3292333,22.8493316 35.4835857,22.879653 L35.4835857,2.20985861 C35.4835857,1.0405527 34.5271619,0.0892544987 33.3514238,0.0892544987 L2.13234286,0.0892544987 C0.956604762,0.0892544987 0,1.0405527 0,2.20985861 L0,30.0250514 C0,31.1943573 0.956604762,32.1455656 2.13234286,32.1455656 L25.400919,32.1455656 C25.2193333,31.77991 25.1762667,31.367108 25.283119,30.9699614 C25.3447333,30.7415167 25.4513143,30.5331362 25.5952619,30.3543573 L25.5952619,30.3543573 Z M30.5832143,3.6501671 C30.5832143,3.21775064 30.9357095,2.86712082 31.3705381,2.86712082 L32.1578619,2.86712082 C32.592781,2.86712082 32.9451857,3.21766067 32.9451857,3.6501671 L32.9451857,4.53758355 C32.9451857,4.97 32.5926905,5.32053985 32.1578619,5.32053985 L31.3705381,5.32053985 C30.935619,5.32053985 30.5832143,4.97 30.5832143,4.53758355 L30.5832143,3.6501671 L30.5832143,3.6501671 Z M26.9220952,3.6501671 C26.9220952,3.21775064 27.2745905,2.86712082 27.709419,2.86712082 L28.4968333,2.86712082 C28.9317524,2.86712082 29.2841571,3.21766067 29.2841571,3.6501671 L29.2841571,4.53758355 C29.2841571,4.97 28.9316619,5.32053985 28.4968333,5.32053985 L27.709419,5.32053985 C27.2745905,5.32053985 26.9220952,4.97 26.9220952,4.53758355 L26.9220952,3.6501671 L26.9220952,3.6501671 Z M23.2608857,3.6501671 C23.2608857,3.21775064 23.6134714,2.86712082 24.0482095,2.86712082 L24.8355333,2.86712082 C25.2704524,2.86712082 25.6229476,3.21766067 25.6229476,3.6501671 L25.6229476,4.53758355 C25.6229476,4.97 25.2704524,5.32053985 24.8355333,5.32053985 L24.0482095,5.32053985 C23.6134714,5.32053985 23.2608857,4.97 23.2608857,4.53758355 L23.2608857,3.6501671 L23.2608857,3.6501671 Z" id="Shape"></path>
                    <path d="M37.9886905,28.861054 L37.7520952,27.5267352 C37.7201571,27.3470566 37.547981,27.2270308 37.367119,27.2587018 L36.173919,27.4678021 C36.0306952,27.1335476 35.8477524,26.820437 35.6306095,26.5338689 L36.4099714,25.6100129 C36.4666095,25.543072 36.4942048,25.4562468 36.4866048,25.3688817 C36.4788238,25.2815167 36.436481,25.2008997 36.3689857,25.1444859 L35.3254333,24.2735347 C35.2579381,24.2172108 35.1704476,24.1898586 35.0826857,24.1975064 C34.9948333,24.2051542 34.9137667,24.2471722 34.8571286,24.3142931 L34.0784905,25.2374293 C33.7588381,25.0754756 33.4169286,24.9505913 33.0587333,24.8681748 L33.0587333,23.6632391 C33.0587333,23.4807712 32.9099,23.3326735 32.7264143,23.3326735 L31.3638429,23.3326735 C31.1804476,23.3326735 31.0315238,23.4807712 31.0315238,23.6632391 L31.0315238,24.8681748 C30.6731476,24.9505013 30.3316,25.0754756 30.0117667,25.2374293 L29.2329476,24.314383 C29.1149667,24.174563 28.9054238,24.1563882 28.7647333,24.2736247 L27.7210905,25.1444859 C27.6535952,25.2008997 27.6113429,25.2815167 27.6035619,25.3688817 C27.5959619,25.4562468 27.6234667,25.543162 27.6801048,25.6102828 L28.4595571,26.5339589 C28.2427762,26.820437 28.0594714,27.1337275 27.9162476,27.467892 L26.7230476,27.2587018 C26.5426381,27.2271208 26.3701,27.3470566 26.3380714,27.5267352 L26.1015667,28.861054 C26.0862762,28.9473393 26.1060905,29.036054 26.1564857,29.1079434 C26.2072429,29.1798329 26.2840571,29.2286889 26.3709143,29.2438946 L27.565019,29.4531748 C27.5844714,29.8210797 27.6488905,30.177018 27.7525762,30.5159512 L26.7030524,31.118329 C26.6266905,31.1619666 26.5710476,31.2343059 26.5481571,31.3188817 C26.5253571,31.4035476 26.5373905,31.4937018 26.5813619,31.5696401 L27.2625571,32.7429949 C27.3064381,32.8189332 27.379181,32.8742674 27.4642286,32.8969409 C27.4925476,32.9044987 27.5214095,32.9081877 27.5502714,32.9081877 C27.6080857,32.9081877 27.6653571,32.8932519 27.7163857,32.8639203 L28.7667238,32.2608226 C29.0137238,32.5239974 29.2925714,32.7572108 29.5972952,32.9544344 L29.1825524,34.0874807 C29.1525143,34.1698972 29.1564048,34.2607712 29.193681,34.3402185 C29.2309571,34.4196658 29.2983619,34.4811183 29.3811476,34.5109897 L30.6612048,34.9742674 C30.6979381,34.9875835 30.736481,34.9944216 30.7749333,34.9944216 C30.8228857,34.9944216 30.8711095,34.9840746 30.9155333,34.9633805 C30.9954238,34.926401 31.0570381,34.8592802 31.0871667,34.7768638 L31.501819,33.6438175 C31.6796048,33.6652314 31.8605571,33.6762982 32.0441333,33.6762982 C32.2277095,33.6762982 32.4086619,33.6650514 32.5864476,33.6438175 L33.0011905,34.7768638 C33.0312286,34.8592802 33.0931143,34.926401 33.1728238,34.9633805 C33.2171571,34.9839846 33.2652,34.9944216 33.3134238,34.9944216 C33.3517857,34.9944216 33.3903286,34.9877635 33.4270619,34.9742674 L34.7073,34.5109897 C34.7899048,34.4811183 34.8574,34.4194859 34.8945857,34.3402185 C34.9318619,34.2607712 34.9358429,34.1698972 34.9057143,34.0874807 L34.4909714,32.9546144 C34.7954238,32.7573907 35.0742714,32.5239974 35.3215429,32.2610026 L36.371881,32.8641003 C36.422819,32.8932519 36.480181,32.9083676 36.5379952,32.9083676 C36.5667667,32.9083676 36.5959,32.9044987 36.6240381,32.8971208 C36.7091762,32.8744473 36.7817381,32.8189332 36.8257095,32.7431748 L37.5069048,31.5696401 C37.5508762,31.4938817 37.5629095,31.4035476 37.5401095,31.3188817 C37.517219,31.2344859 37.4615762,31.1621465 37.3852143,31.118329 L36.3358714,30.5161311 C36.4395571,30.177108 36.5037952,29.8211697 36.5232476,29.4533548 L37.7173524,29.2439846 C37.8042095,29.2287789 37.8812952,29.1799229 37.931781,29.1080334 C37.9841667,29.036054 38.003981,28.9473393 37.9886905,28.861054 L37.9886905,28.861054 Z M32.045219,30.9813882 C31.0359571,30.9813882 30.2176,30.1675707 30.2176,29.1638175 C30.2176,28.1600643 31.0360476,27.3463368 32.045219,27.3463368 C33.0545714,27.3463368 33.8729286,28.1600643 33.8729286,29.1638175 C33.8729286,30.1675707 33.0545714,30.9813882 32.045219,30.9813882 L32.045219,30.9813882 Z" id="Shape"></path>
                    <path d="M14.9009762,19.8279049 C14.9009762,19.400347 14.649,19.0076093 14.2589571,18.8274807 L10.689219,17.178072 L14.2590476,15.5284833 C14.649,15.3481748 14.9009762,14.955527 14.9009762,14.5281491 L14.9009762,14.4994473 C14.9009762,14.1206555 14.7092571,13.7729049 14.3884286,13.569653 C14.2109143,13.4569152 14.0041762,13.3972622 13.7907429,13.3972622 C13.6298762,13.3972622 13.4683762,13.4324422 13.3238857,13.4992031 L7.61682857,16.138419 C7.22696667,16.3187275 6.97517143,16.7113753 6.97517143,17.1386632 L6.97517143,17.2175707 C6.97517143,17.6443188 7.22687619,18.0366967 7.61691905,18.2179049 L13.324519,20.8573907 C13.4720857,20.9253213 13.6292429,20.9597815 13.7915571,20.9597815 C14.0030905,20.9597815 14.2091952,20.9000386 14.3884286,20.786671 C14.7094381,20.5826093 14.9010667,20.2351285 14.9010667,19.8567866 L14.9009762,19.8279049 Z M20.5319429,10.7080206 C20.3237571,10.4246015 19.9889048,10.2554499 19.6361381,10.2554499 L19.6077286,10.2554499 C19.123319,10.2554499 18.6986238,10.5636118 18.5510571,11.021671 L14.7908667,22.6078406 C14.6838333,22.942365 14.7440905,23.3108098 14.9520048,23.5941388 C15.1601905,23.8773779 15.4950429,24.0466195 15.8478095,24.0466195 L15.8763095,24.0466195 C16.3605381,24.0466195 16.7849619,23.7383676 16.9323476,23.2803985 L20.6920857,11.6951285 C20.8001143,11.360874 20.740219,10.9918895 20.5319429,10.7080206 Z M27.8667571,16.138329 L22.1596095,13.4991131 C22.0155714,13.4325321 21.8543429,13.3973522 21.6934762,13.3973522 C21.4801333,13.3973522 21.2733048,13.4568252 21.095881,13.569383 C20.7745095,13.7729949 20.5827905,14.1206555 20.5827905,14.4994473 L20.5827905,14.5281491 C20.5827905,14.9551671 20.8345857,15.3479049 21.2249,15.5289332 L24.7945476,17.178162 L21.2248095,18.8274807 C20.8347667,19.0076093 20.5827905,19.400347 20.5827905,19.8279049 L20.5827905,19.8567866 C20.5827905,20.2351285 20.7745095,20.5825193 21.0957,20.7867609 C21.2743,20.8999486 21.4805857,20.9597815 21.6923905,20.9597815 C21.8545238,20.9597815 22.0115,20.9253213 22.1600619,20.8571208 L27.867481,18.217635 C28.2571619,18.0368766 28.5087762,17.6444087 28.5087762,17.2176607 L28.5087762,17.1387532 C28.5085048,16.7113753 28.2567095,16.3187275 27.8667571,16.138329 Z" id="Shape"></path>
                </g>
            </g>
        </g>
    </g>
</svg>